  0
SECTION
  2
HEADER
  9
$ACADVER
  1
AC1009
  9
$EXTMIN
 10
0.0
 20
0.0
 30
0.0
  9
$EXTMAX
 10
100.0
 20
100.0
 30
0.0
  9
$INSBASE
 10
0.0
 20
0.0
 30
0.0
  0
ENDSEC
  0
SECTION
  2
TABLES
  0
TABLE
  2
LTYPE
 70
19
  0
LTYPE
  2
PHANTOM
 70
0
  3
Phantom ______  __  __  ______  __  __  ______
 72
65
 73
6
 40
2.5
 49
1.25
 49
-0.25
 49
0.25
 49
-0.25
 49
0.25
 49
-0.25
  0
LTYPE
  2
DOT2
 70
0
  3
Dot (.5) . . . . . . . . . . . . . . . . . . . 
 72
65
 73
2
 40
0.1
 49
0.0
 49
-0.1
  0
LTYPE
  2
DIVIDE
 70
0
  3
Divide __ . . __ . . __ . . __ . . __ . . __
 72
65
 73
6
 40
1.6
 49
1.0
 49
-0.2
 49
0.0
 49
-0.2
 49
0.0
 49
-0.2
  0
LTYPE
  2
DIVIDEX2
 70
0
  3
Divide (2x) ____  . .  ____  . .  ____  . .  ____
 72
65
 73
6
 40
2.6
 49
2.0
 49
-0.2
 49
0.0
 49
-0.2
 49
0.0
 49
-0.2
  0
LTYPE
  2
CENTER
 70
0
  3
Center ____ _ ____ _ ____ _ ____ _ ____ _ ____
 72
65
 73
4
 40
2.0
 49
1.25
 49
-0.25
 49
0.25
 49
-0.25
  0
LTYPE
  2
DASHDOT
 70
0
  3
Dash dot __ . __ . __ . __ . __ . __ . __ . __
 72
65
 73
4
 40
1.4
 49
1.0
 49
-0.2
 49
0.0
 49
-0.2
  0
LTYPE
  2
CENTERX2
 70
0
  3
Center (2x) ________  __  ________  __  ________
 72
65
 73
4
 40
3.5
 49
2.5
 49
-0.25
 49
0.5
 49
-0.25
  0
LTYPE
  2
PHANTOMX2
 70
0
  3
Phantom (2x)____________    ____    ____    ____________
 72
65
 73
6
 40
4.25
 49
2.5
 49
-0.25
 49
0.5
 49
-0.25
 49
0.5
 49
-0.25
  0
LTYPE
  2
CONTINUOUS
 70
0
  3
Solid
 72
65
 73
0
 40
0.0
  0
LTYPE
  2
PHANTOM2
 70
0
  3
Phantom (.5x) ___ _ _ ___ _ _ ___ _ _ ___ _ _ ___
 72
65
 73
6
 40
1.25
 49
0.625
 49
-0.125
 49
0.125
 49
-0.125
 49
0.125
 49
-0.125
  0
LTYPE
  2
DASHED
 70
0
  3
Dashed __ __ __ __ __ __ __ __ __ __ __ __ __ _
 72
65
 73
2
 40
0.6
 49
0.5
 49
-0.1
  0
LTYPE
  2
DASHED2
 70
0
  3
Dashed (.5x) _ _ _ _ _ _ _ _ _ _ _ _ _ _
 72
65
 73
2
 40
0.3
 49
0.25
 49
-0.05
  0
LTYPE
  2
DASHDOT2
 70
0
  3
Dash dot (.5x) _ . _ . _ . _ . _ . _ . _ . _
 72
65
 73
4
 40
0.7
 49
0.5
 49
-0.1
 49
0.0
 49
-0.1
  0
LTYPE
  2
DOTX2
 70
0
  3
Dot (2x) .    .    .    .    .    .    .    . 
 72
65
 73
2
 40
0.4
 49
0.0
 49
-0.4
  0
LTYPE
  2
DIVIDE2
 70
0
  3
Divide(.5x) _ . _ . _ . _ . _ . _ . _ . _
 72
65
 73
6
 40
0.8
 49
0.5
 49
-0.1
 49
0.0
 49
-0.1
 49
0.0
 49
-0.1
  0
LTYPE
  2
CENTER2
 70
0
  3
Center (.5x) ____ _ ____ _ ____ _ ____ _ ____
 72
65
 73
4
 40
1.0
 49
0.625
 49
-0.125
 49
0.125
 49
-0.125
  0
LTYPE
  2
DASHDOTX2
 70
0
  3
Dash dot (2x) ____  .  ____  .  ____  .  ____
 72
65
 73
4
 40
2.4
 49
2.0
 49
-0.2
 49
0.0
 49
-0.2
  0
LTYPE
  2
DOT
 70
0
  3
Dot .  .  .  .  .  .  .  .  .  .  .  .  .  .  .  .
 72
65
 73
2
 40
0.2
 49
0.0
 49
-0.2
  0
LTYPE
  2
DASHEDX2
 70
0
  3
Dashed (2x) ____  ____  ____  ____  ____  ____
 72
65
 73
2
 40
1.2
 49
1.0
 49
-0.2
  0
ENDTAB
  0
TABLE
  2
LAYER
 70
5
  0
LAYER
  2
VIEWPORTS
 70
0
 62
7
  6
CONTINUOUS
  0
LAYER
  2
TABLEGRID
 70
0
 62
1
  6
CONTINUOUS
  0
LAYER
  2
TABLECONTENT
 70
0
 62
1
  6
CONTINUOUS
  0
LAYER
  2
DIMENSIONS
 70
0
 62
1
  6
CONTINUOUS
  0
LAYER
  2
TABLEBACKGROUND
 70
0
 62
1
  6
CONTINUOUS
  0
ENDTAB
  0
TABLE
  2
STYLE
 70
12
  0
STYLE
  2
TIMES
 70
0
 40
0.0
 41
1.0
 42
1.0
 50
0.0
 71
0
  3
times.ttf
  4

  0
STYLE
  2
ARIAL
 70
0
 40
0.0
 41
1.0
 42
1.0
 50
0.0
 71
0
  3
arial.ttf
  4

  0
STYLE
  2
TIMES_BOLD
 70
0
 40
0.0
 41
1.0
 42
1.0
 50
0.0
 71
0
  3
timesbd.ttf
  4

  0
STYLE
  2
ARIAL_BLACK
 70
0
 40
0.0
 41
1.0
 42
1.0
 50
0.0
 71
0
  3
ariblk.ttf
  4

  0
STYLE
  2
TIMES_ITALIC
 70
0
 40
0.0
 41
1.0
 42
1.0
 50
0.0
 71
0
  3
timesi.ttf
  4

  0
STYLE
  2
ISOCPEUR
 70
0
 40
0.0
 41
1.0
 42
1.0
 50
0.0
 71
0
  3
isocpeur.ttf
  4

  0
STYLE
  2
ARIAL_BOLD
 70
0
 40
0.0
 41
1.0
 42
1.0
 50
0.0
 71
0
  3
arialbd.ttf
  4

  0
STYLE
  2
ARIAL_ITALIC
 70
0
 40
0.0
 41
1.0
 42
1.0
 50
0.0
 71
0
  3
ariali.ttf
  4

  0
STYLE
  2
ARIAL_BOLD_ITALIC
 70
0
 40
0.0
 41
1.0
 42
1.0
 50
0.0
 71
0
  3
arialbi.ttf
  4

  0
STYLE
  2
TIMES_BOLD_ITALIC
 70
0
 40
0.0
 41
1.0
 42
1.0
 50
0.0
 71
0
  3
timesbi.ttf
  4

  0
STYLE
  2
ISOCPEUR_ITALIC
 70
0
 40
0.0
 41
1.0
 42
1.0
 50
0.0
 71
0
  3
isocpeui.ttf
  4

  0
STYLE
  2
STANDARD
 70
0
 40
0.0
 41
1.0
 42
1.0
 50
0.0
 71
0
  3
arial.ttf
  4

  0
ENDTAB
  0
TABLE
  2
VIEW
 70
0
  0
ENDTAB
  0
TABLE
  2
APPID
 70
1
  0
APPID
  2
DXFWRITE
 70
0
  0
ENDTAB
  0
TABLE
  2
VPORT
 70
0
  0
ENDTAB
  0
TABLE
  2
UCS
 70
0
  0
ENDTAB
  0
ENDSEC
  0
SECTION
  2
BLOCKS
  0
ENDSEC
  0
SECTION
  2
ENTITIES
  0
VIEWPORT
  8
VIEWPORTS
 67
1
 10
0.0
 20
0.0
 30
0.0
 40
1.0
 41
1.0
 68
1
 69
1
1001
ACAD
1000
MVIEW
1002
{
1070
16
1010
0.0
1020
0.0
1030
0.0
1010
0.0
1020
0.0
1030
0.0
1040
0.0
1040
1.0
1040
0.0
1040
0.0
1040
50.0
1040
0.0
1040
0.0
1070
0
1070
100
1070
1
1070
3
1070
0
1070
0
1070
0
1070
0
1040
0.0
1040
0.0
1040
0.0
1040
0.1
1040
0.1
1040
0.1
1040
0.1
1070
0
1002
{
1002
}
1002
}
  0
CIRCLE
  8
0
 10
0.0
 20
10.0
 30
0.0
 40
0.5
  0
CIRCLE
  8
0
 10
1.65780533429
 20
11.4828922874
 30
0.0
 40
0.72425
  0
CIRCLE
  8
0
 10
3.91015415045
 20
13.0423502612
 30
0.0
 40
1.01527265217
  0
CIRCLE
  8
0
 10
6.93347665247
 20
14.5135668781
 30
0.0
 40
1.34701188144
  0
CIRCLE
  8
0
 10
10.8141478776
 20
15.5790331439
 30
0.0
 40
1.6772678704
  0
CIRCLE
  8
0
 10
15.4108538588
 20
15.8175826619
 30
0.0
 40
1.9256238023
  0
CIRCLE
  8
0
 10
20.3151284959
 20
14.8813803237
 30
0.0
 40
2.06720951493
  0
CIRCLE
  8
0
 10
25.2759340827
 20
12.4722717348
 30
0.0
 40
2.44762468596
  0
CIRCLE
  8
0
 10
30.1131773647
 20
8.3819205516
 30
0.0
 40
2.80558070161
  0
CIRCLE
  8
0
 10
36.1055269356
 20
5.16724492997
 30
0.0
 40
2.99459523234
  0
CIRCLE
  8
0
 10
41.9532732166
 20
4.14773279332
 30
0.0
 40
1.9413580663
  0
CIRCLE
  8
0
 10
46.2230585977
 20
4.50580613813
 30
0.0
 40
1.34341540743
  0
CIRCLE
  8
0
 10
49.4013188378
 20
5.39778706056
 30
0.0
 40
0.957640199459
  0
CIRCLE
  8
0
 10
51.8447519588
 20
6.49858791328
 30
0.0
 40
0.722309041468
  0
CIRCLE
  8
0
 10
53.812886835
 20
7.69987075438
 30
0.0
 40
0.583473982847
  0
CIRCLE
  8
0
 10
55.4724787239
 20
8.98297967047
 30
0.0
 40
0.514290000093
  0
CIRCLE
  8
0
 10
-5.0
 20
8.66025403784
 30
0.0
 40
0.5
  0
CIRCLE
  8
0
 10
-4.30574460968
 20
10.773379097
 30
0.0
 40
0.72425
  0
CIRCLE
  8
0
 10
-3.13488230361
 20
13.2500837265
 30
0.0
 40
1.01527265217
  0
CIRCLE
  8
0
 10
-1.25221652145
 20
16.0358559422
 30
0.0
 40
1.34701188144
  0
CIRCLE
  8
0
 10
1.57581021032
 20
18.8989124078
 30
0.0
 40
1.6772678704
  0
CIRCLE
  8
0
 10
5.43739960484
 20
21.403855341
 30
0.0
 40
1.9256238023
  0
CIRCLE
  8
0
 10
10.1527271968
 20
23.0452176516
 30
0.0
 40
2.06720951493
  0
CIRCLE
  8
0
 10
15.6534651526
 20
23.4392712066
 30
0.0
 40
2.44762468596
  0
CIRCLE
  8
0
 10
21.8878163107
 20
22.3155448125
 30
0.0
 40
2.80558070161
  0
CIRCLE
  8
0
 10
28.6846810783
 20
22.5277288447
 30
0.0
 40
2.99459523234
  0
CIRCLE
  8
0
 10
34.2587339808
 20
24.5686785754
 30
0.0
 40
1.9413580663
  0
CIRCLE
  8
0
 10
37.7774399172
 20
27.013671879
 30
0.0
 40
1.34341540743
  0
CIRCLE
  8
0
 10
40.0839035637
 20
29.3752801376
 30
0.0
 40
0.957640199459
  0
CIRCLE
  8
0
 10
41.6495782926
 20
31.550318201
 30
0.0
 40
0.722309041468
  0
CIRCLE
  8
0
 10
42.7533916729
 20
33.5747270966
 30
0.0
 40
0.583473982847
  0
CIRCLE
  8
0
 10
43.5490859505
 20
35.5157279582
 30
0.0
 40
0.514290000093
  0
CIRCLE
  8
0
 10
-8.66025403784
 20
5.0
 30
0.0
 40
0.5
  0
CIRCLE
  8
0
 10
-9.11557376268
 20
7.17714767774
 30
0.0
 40
0.72425
  0
CIRCLE
  8
0
 10
-9.33992957606
 20
9.90746795762
 30
0.0
 40
1.01527265217
  0
CIRCLE
  8
0
 10
-9.10237928971
 20
13.2613503566
 30
0.0
 40
1.34701188144
  0
CIRCLE
  8
0
 10
-8.08476453023
 20
17.1548433542
 30
0.0
 40
1.6772678704
  0
CIRCLE
  8
0
 10
-5.9930014822
 20
21.2549822667
 30
0.0
 40
1.9256238023
  0
CIRCLE
  8
0
 10
-2.73008915572
 20
25.0341075204
 30
0.0
 40
2.06720951493
  0
CIRCLE
  8
0
 10
1.83666287613
 20
28.1257368874
 30
0.0
 40
2.44762468596
  0
CIRCLE
  8
0
 10
7.79763255215
 20
30.2697368623
 30
0.0
 40
2.80558070161
  0
CIRCLE
  8
0
 10
13.5777980909
 20
33.8519260083
 30
0.0
 40
2.99459523234
  0
CIRCLE
  8
0
 10
17.3845946412
 20
38.4064667742
 30
0.0
 40
1.9413580663
  0
CIRCLE
  8
0
 10
19.2093867187
 20
42.2832460553
 30
0.0
 40
1.34341540743
  0
CIRCLE
  8
0
 10
20.0260387003
 20
45.4816906243
 30
0.0
 40
0.957640199459
  0
CIRCLE
  8
0
 10
20.2944337578
 20
48.1481662059
 30
0.0
 40
0.722309041468
  0
CIRCLE
  8
0
 10
20.2381597383
 20
50.4532624273
 30
0.0
 40
0.583473982847
  0
CIRCLE
  8
0
 10
19.9567507656
 20
52.532065621
 30
0.0
 40
0.514290000093
  0
CIRCLE
  8
0
 10
-10.0
 20
1.7763568394e-15
 30
0.0
 40
0.5
  0
CIRCLE
  8
0
 10
-11.4828922874
 20
1.65780533429
 30
0.0
 40
0.72425
  0
CIRCLE
  8
0
 10
-13.0423502612
 20
3.91015415045
 30
0.0
 40
1.01527265217
  0
CIRCLE
  8
0
 10
-14.5135668781
 20
6.93347665247
 30
0.0
 40
1.34701188144
  0
CIRCLE
  8
0
 10
-15.5790331439
 20
10.8141478776
 30
0.0
 40
1.6772678704
  0
CIRCLE
  8
0
 10
-15.8175826619
 20
15.4108538588
 30
0.0
 40
1.9256238023
  0
CIRCLE
  8
0
 10
-14.8813803237
 20
20.3151284959
 30
0.0
 40
2.06720951493
  0
CIRCLE
  8
0
 10
-12.4722717348
 20
25.2759340827
 30
0.0
 40
2.44762468596
  0
CIRCLE
  8
0
 10
-8.3819205516
 20
30.1131773647
 30
0.0
 40
2.80558070161
  0
CIRCLE
  8
0
 10
-5.16724492997
 20
36.1055269356
 30
0.0
 40
2.99459523234
  0
CIRCLE
  8
0
 10
-4.14773279332
 20
41.9532732166
 30
0.0
 40
1.9413580663
  0
CIRCLE
  8
0
 10
-4.50580613813
 20
46.2230585977
 30
0.0
 40
1.34341540743
  0
CIRCLE
  8
0
 10
-5.39778706056
 20
49.4013188378
 30
0.0
 40
0.957640199459
  0
CIRCLE
  8
0
 10
-6.49858791328
 20
51.8447519588
 30
0.0
 40
0.722309041468
  0
CIRCLE
  8
0
 10
-7.69987075438
 20
53.812886835
 30
0.0
 40
0.583473982847
  0
CIRCLE
  8
0
 10
-8.98297967047
 20
55.4724787239
 30
0.0
 40
0.514290000093
  0
CIRCLE
  8
0
 10
-8.66025403784
 20
-5.0
 30
0.0
 40
0.5
  0
CIRCLE
  8
0
 10
-10.773379097
 20
-4.30574460968
 30
0.0
 40
0.72425
  0
CIRCLE
  8
0
 10
-13.2500837265
 20
-3.13488230361
 30
0.0
 40
1.01527265217
  0
CIRCLE
  8
0
 10
-16.0358559422
 20
-1.25221652145
 30
0.0
 40
1.34701188144
  0
CIRCLE
  8
0
 10
-18.8989124078
 20
1.57581021032
 30
0.0
 40
1.6772678704
  0
CIRCLE
  8
0
 10
-21.403855341
 20
5.43739960484
 30
0.0
 40
1.9256238023
  0
CIRCLE
  8
0
 10
-23.0452176516
 20
10.1527271968
 30
0.0
 40
2.06720951493
  0
CIRCLE
  8
0
 10
-23.4392712066
 20
15.6534651526
 30
0.0
 40
2.44762468596
  0
CIRCLE
  8
0
 10
-22.3155448125
 20
21.8878163107
 30
0.0
 40
2.80558070161
  0
CIRCLE
  8
0
 10
-22.5277288447
 20
28.6846810783
 30
0.0
 40
2.99459523234
  0
CIRCLE
  8
0
 10
-24.5686785754
 20
34.2587339808
 30
0.0
 40
1.9413580663
  0
CIRCLE
  8
0
 10
-27.013671879
 20
37.7774399172
 30
0.0
 40
1.34341540743
  0
CIRCLE
  8
0
 10
-29.3752801376
 20
40.0839035637
 30
0.0
 40
0.957640199459
  0
CIRCLE
  8
0
 10
-31.550318201
 20
41.6495782926
 30
0.0
 40
0.722309041468
  0
CIRCLE
  8
0
 10
-33.5747270966
 20
42.7533916729
 30
0.0
 40
0.583473982847
  0
CIRCLE
  8
0
 10
-35.5157279582
 20
43.5490859505
 30
0.0
 40
0.514290000093
  0
CIRCLE
  8
0
 10
-5.0
 20
-8.66025403784
 30
0.0
 40
0.5
  0
CIRCLE
  8
0
 10
-7.17714767774
 20
-9.11557376268
 30
0.0
 40
0.72425
  0
CIRCLE
  8
0
 10
-9.90746795762
 20
-9.33992957606
 30
0.0
 40
1.01527265217
  0
CIRCLE
  8
0
 10
-13.2613503566
 20
-9.10237928971
 30
0.0
 40
1.34701188144
  0
CIRCLE
  8
0
 10
-17.1548433542
 20
-8.08476453023
 30
0.0
 40
1.6772678704
  0
CIRCLE
  8
0
 10
-21.2549822667
 20
-5.9930014822
 30
0.0
 40
1.9256238023
  0
CIRCLE
  8
0
 10
-25.0341075204
 20
-2.73008915572
 30
0.0
 40
2.06720951493
  0
CIRCLE
  8
0
 10
-28.1257368874
 20
1.83666287613
 30
0.0
 40
2.44762468596
  0
CIRCLE
  8
0
 10
-30.2697368623
 20
7.79763255215
 30
0.0
 40
2.80558070161
  0
CIRCLE
  8
0
 10
-33.8519260083
 20
13.5777980909
 30
0.0
 40
2.99459523234
  0
CIRCLE
  8
0
 10
-38.4064667742
 20
17.3845946412
 30
0.0
 40
1.9413580663
  0
CIRCLE
  8
0
 10
-42.2832460553
 20
19.2093867187
 30
0.0
 40
1.34341540743
  0
CIRCLE
  8
0
 10
-45.4816906243
 20
20.0260387003
 30
0.0
 40
0.957640199459
  0
CIRCLE
  8
0
 10
-48.1481662059
 20
20.2944337578
 30
0.0
 40
0.722309041468
  0
CIRCLE
  8
0
 10
-50.4532624273
 20
20.2381597383
 30
0.0
 40
0.583473982847
  0
CIRCLE
  8
0
 10
-52.532065621
 20
19.9567507656
 30
0.0
 40
0.514290000093
  0
CIRCLE
  8
0
 10
-1.7763568394e-15
 20
-10.0
 30
0.0
 40
0.5
  0
CIRCLE
  8
0
 10
-1.65780533429
 20
-11.4828922874
 30
0.0
 40
0.72425
  0
CIRCLE
  8
0
 10
-3.91015415045
 20
-13.0423502612
 30
0.0
 40
1.01527265217
  0
CIRCLE
  8
0
 10
-6.93347665247
 20
-14.5135668781
 30
0.0
 40
1.34701188144
  0
CIRCLE
  8
0
 10
-10.8141478776
 20
-15.5790331439
 30
0.0
 40
1.6772678704
  0
CIRCLE
  8
0
 10
-15.4108538588
 20
-15.8175826619
 30
0.0
 40
1.9256238023
  0
CIRCLE
  8
0
 10
-20.3151284959
 20
-14.8813803237
 30
0.0
 40
2.06720951493
  0
CIRCLE
  8
0
 10
-25.2759340827
 20
-12.4722717348
 30
0.0
 40
2.44762468596
  0
CIRCLE
  8
0
 10
-30.1131773647
 20
-8.3819205516
 30
0.0
 40
2.80558070161
  0
CIRCLE
  8
0
 10
-36.1055269356
 20
-5.16724492997
 30
0.0
 40
2.99459523234
  0
CIRCLE
  8
0
 10
-41.9532732166
 20
-4.14773279332
 30
0.0
 40
1.9413580663
  0
CIRCLE
  8
0
 10
-46.2230585977
 20
-4.50580613813
 30
0.0
 40
1.34341540743
  0
CIRCLE
  8
0
 10
-49.4013188378
 20
-5.39778706056
 30
0.0
 40
0.957640199459
  0
CIRCLE
  8
0
 10
-51.8447519588
 20
-6.49858791328
 30
0.0
 40
0.722309041468
  0
CIRCLE
  8
0
 10
-53.812886835
 20
-7.69987075438
 30
0.0
 40
0.583473982847
  0
CIRCLE
  8
0
 10
-55.4724787239
 20
-8.98297967047
 30
0.0
 40
0.514290000093
  0
CIRCLE
  8
0
 10
5.0
 20
-8.66025403784
 30
0.0
 40
0.5
  0
CIRCLE
  8
0
 10
4.30574460968
 20
-10.773379097
 30
0.0
 40
0.72425
  0
CIRCLE
  8
0
 10
3.13488230361
 20
-13.2500837265
 30
0.0
 40
1.01527265217
  0
CIRCLE
  8
0
 10
1.25221652145
 20
-16.0358559422
 30
0.0
 40
1.34701188144
  0
CIRCLE
  8
0
 10
-1.57581021032
 20
-18.8989124078
 30
0.0
 40
1.6772678704
  0
CIRCLE
  8
0
 10
-5.43739960484
 20
-21.403855341
 30
0.0
 40
1.9256238023
  0
CIRCLE
  8
0
 10
-10.1527271968
 20
-23.0452176516
 30
0.0
 40
2.06720951493
  0
CIRCLE
  8
0
 10
-15.6534651526
 20
-23.4392712066
 30
0.0
 40
2.44762468596
  0
CIRCLE
  8
0
 10
-21.8878163107
 20
-22.3155448125
 30
0.0
 40
2.80558070161
  0
CIRCLE
  8
0
 10
-28.6846810783
 20
-22.5277288447
 30
0.0
 40
2.99459523234
  0
CIRCLE
  8
0
 10
-34.2587339808
 20
-24.5686785754
 30
0.0
 40
1.9413580663
  0
CIRCLE
  8
0
 10
-37.7774399172
 20
-27.013671879
 30
0.0
 40
1.34341540743
  0
CIRCLE
  8
0
 10
-40.0839035637
 20
-29.3752801376
 30
0.0
 40
0.957640199459
  0
CIRCLE
  8
0
 10
-41.6495782926
 20
-31.550318201
 30
0.0
 40
0.722309041468
  0
CIRCLE
  8
0
 10
-42.7533916729
 20
-33.5747270966
 30
0.0
 40
0.583473982847
  0
CIRCLE
  8
0
 10
-43.5490859505
 20
-35.5157279582
 30
0.0
 40
0.514290000093
  0
CIRCLE
  8
0
 10
8.66025403784
 20
-5.0
 30
0.0
 40
0.5
  0
CIRCLE
  8
0
 10
9.11557376268
 20
-7.17714767774
 30
0.0
 40
0.72425
  0
CIRCLE
  8
0
 10
9.33992957606
 20
-9.90746795762
 30
0.0
 40
1.01527265217
  0
CIRCLE
  8
0
 10
9.10237928971
 20
-13.2613503566
 30
0.0
 40
1.34701188144
  0
CIRCLE
  8
0
 10
8.08476453023
 20
-17.1548433542
 30
0.0
 40
1.6772678704
  0
CIRCLE
  8
0
 10
5.9930014822
 20
-21.2549822667
 30
0.0
 40
1.9256238023
  0
CIRCLE
  8
0
 10
2.73008915572
 20
-25.0341075204
 30
0.0
 40
2.06720951493
  0
CIRCLE
  8
0
 10
-1.83666287613
 20
-28.1257368874
 30
0.0
 40
2.44762468596
  0
CIRCLE
  8
0
 10
-7.79763255215
 20
-30.2697368623
 30
0.0
 40
2.80558070161
  0
CIRCLE
  8
0
 10
-13.5777980909
 20
-33.8519260083
 30
0.0
 40
2.99459523234
  0
CIRCLE
  8
0
 10
-17.3845946412
 20
-38.4064667742
 30
0.0
 40
1.9413580663
  0
CIRCLE
  8
0
 10
-19.2093867187
 20
-42.2832460553
 30
0.0
 40
1.34341540743
  0
CIRCLE
  8
0
 10
-20.0260387003
 20
-45.4816906243
 30
0.0
 40
0.957640199459
  0
CIRCLE
  8
0
 10
-20.2944337578
 20
-48.1481662059
 30
0.0
 40
0.722309041468
  0
CIRCLE
  8
0
 10
-20.2381597383
 20
-50.4532624273
 30
0.0
 40
0.583473982847
  0
CIRCLE
  8
0
 10
-19.9567507656
 20
-52.532065621
 30
0.0
 40
0.514290000093
  0
CIRCLE
  8
0
 10
10.0
 20
-1.7763568394e-15
 30
0.0
 40
0.5
  0
CIRCLE
  8
0
 10
11.4828922874
 20
-1.65780533429
 30
0.0
 40
0.72425
  0
CIRCLE
  8
0
 10
13.0423502612
 20
-3.91015415045
 30
0.0
 40
1.01527265217
  0
CIRCLE
  8
0
 10
14.5135668781
 20
-6.93347665247
 30
0.0
 40
1.34701188144
  0
CIRCLE
  8
0
 10
15.5790331439
 20
-10.8141478776
 30
0.0
 40
1.6772678704
  0
CIRCLE
  8
0
 10
15.8175826619
 20
-15.4108538588
 30
0.0
 40
1.9256238023
  0
CIRCLE
  8
0
 10
14.8813803237
 20
-20.3151284959
 30
0.0
 40
2.06720951493
  0
CIRCLE
  8
0
 10
12.4722717348
 20
-25.2759340827
 30
0.0
 40
2.44762468596
  0
CIRCLE
  8
0
 10
8.3819205516
 20
-30.1131773647
 30
0.0
 40
2.80558070161
  0
CIRCLE
  8
0
 10
5.16724492997
 20
-36.1055269356
 30
0.0
 40
2.99459523234
  0
CIRCLE
  8
0
 10
4.14773279332
 20
-41.9532732166
 30
0.0
 40
1.9413580663
  0
CIRCLE
  8
0
 10
4.50580613813
 20
-46.2230585977
 30
0.0
 40
1.34341540743
  0
CIRCLE
  8
0
 10
5.39778706056
 20
-49.4013188378
 30
0.0
 40
0.957640199459
  0
CIRCLE
  8
0
 10
6.49858791328
 20
-51.8447519588
 30
0.0
 40
0.722309041468
  0
CIRCLE
  8
0
 10
7.69987075438
 20
-53.812886835
 30
0.0
 40
0.583473982847
  0
CIRCLE
  8
0
 10
8.98297967047
 20
-55.4724787239
 30
0.0
 40
0.514290000093
  0
CIRCLE
  8
0
 10
8.66025403784
 20
5.0
 30
0.0
 40
0.5
  0
CIRCLE
  8
0
 10
10.773379097
 20
4.30574460968
 30
0.0
 40
0.72425
  0
CIRCLE
  8
0
 10
13.2500837265
 20
3.13488230361
 30
0.0
 40
1.01527265217
  0
CIRCLE
  8
0
 10
16.0358559422
 20
1.25221652145
 30
0.0
 40
1.34701188144
  0
CIRCLE
  8
0
 10
18.8989124078
 20
-1.57581021032
 30
0.0
 40
1.6772678704
  0
CIRCLE
  8
0
 10
21.403855341
 20
-5.43739960484
 30
0.0
 40
1.9256238023
  0
CIRCLE
  8
0
 10
23.0452176516
 20
-10.1527271968
 30
0.0
 40
2.06720951493
  0
CIRCLE
  8
0
 10
23.4392712066
 20
-15.6534651526
 30
0.0
 40
2.44762468596
  0
CIRCLE
  8
0
 10
22.3155448125
 20
-21.8878163107
 30
0.0
 40
2.80558070161
  0
CIRCLE
  8
0
 10
22.5277288447
 20
-28.6846810783
 30
0.0
 40
2.99459523234
  0
CIRCLE
  8
0
 10
24.5686785754
 20
-34.2587339808
 30
0.0
 40
1.9413580663
  0
CIRCLE
  8
0
 10
27.013671879
 20
-37.7774399172
 30
0.0
 40
1.34341540743
  0
CIRCLE
  8
0
 10
29.3752801376
 20
-40.0839035637
 30
0.0
 40
0.957640199459
  0
CIRCLE
  8
0
 10
31.550318201
 20
-41.6495782926
 30
0.0
 40
0.722309041468
  0
CIRCLE
  8
0
 10
33.5747270966
 20
-42.7533916729
 30
0.0
 40
0.583473982847
  0
CIRCLE
  8
0
 10
35.5157279582
 20
-43.5490859505
 30
0.0
 40
0.514290000093
  0
CIRCLE
  8
0
 10
5.0
 20
8.66025403784
 30
0.0
 40
0.5
  0
CIRCLE
  8
0
 10
7.17714767774
 20
9.11557376268
 30
0.0
 40
0.72425
  0
CIRCLE
  8
0
 10
9.90746795762
 20
9.33992957606
 30
0.0
 40
1.01527265217
  0
CIRCLE
  8
0
 10
13.2613503566
 20
9.10237928971
 30
0.0
 40
1.34701188144
  0
CIRCLE
  8
0
 10
17.1548433542
 20
8.08476453023
 30
0.0
 40
1.6772678704
  0
CIRCLE
  8
0
 10
21.2549822667
 20
5.9930014822
 30
0.0
 40
1.9256238023
  0
CIRCLE
  8
0
 10
25.0341075204
 20
2.73008915572
 30
0.0
 40
2.06720951493
  0
CIRCLE
  8
0
 10
28.1257368874
 20
-1.83666287613
 30
0.0
 40
2.44762468596
  0
CIRCLE
  8
0
 10
30.2697368623
 20
-7.79763255215
 30
0.0
 40
2.80558070161
  0
CIRCLE
  8
0
 10
33.8519260083
 20
-13.5777980909
 30
0.0
 40
2.99459523234
  0
CIRCLE
  8
0
 10
38.4064667742
 20
-17.3845946412
 30
0.0
 40
1.9413580663
  0
CIRCLE
  8
0
 10
42.2832460553
 20
-19.2093867187
 30
0.0
 40
1.34341540743
  0
CIRCLE
  8
0
 10
45.4816906243
 20
-20.0260387003
 30
0.0
 40
0.957640199459
  0
CIRCLE
  8
0
 10
48.1481662059
 20
-20.2944337578
 30
0.0
 40
0.722309041468
  0
CIRCLE
  8
0
 10
50.4532624273
 20
-20.2381597383
 30
0.0
 40
0.583473982847
  0
CIRCLE
  8
0
 10
52.532065621
 20
-19.9567507656
 30
0.0
 40
0.514290000093
  0
ENDSEC
  0
EOF
